<svg width="291" height="72" viewBox="0 0 291 72" fill="none" xmlns="http://www.w3.org/2000/svg">
<g clip-path="url(#clip0_56_64725)">
<path d="M175.925 46.8872H180.922V50.9765H174.495C173.85 50.9766 173.212 50.8482 172.616 50.5989C172.021 50.3497 171.481 49.9844 171.027 49.5242C170.574 49.0641 170.216 48.5183 169.974 47.9183C169.732 47.3184 169.611 46.6762 169.618 46.029V21.5732H174.442V27.6067H179.787V31.6961H174.442V45.3855C174.442 45.7838 174.599 46.1657 174.88 46.4473C175.161 46.729 175.541 46.8872 175.938 46.8872H175.925ZM122.356 42.3285C122.406 42.998 122.317 43.6706 122.096 44.3042C121.875 44.9378 121.525 45.5187 121.07 46.0107C120.615 46.5027 120.063 46.8952 119.45 47.1636C118.837 47.4319 118.175 47.5704 117.506 47.5704C116.837 47.5704 116.175 47.4319 115.562 47.1636C114.948 46.8952 114.397 46.5027 113.941 46.0107C113.486 45.5187 113.137 44.9378 112.916 44.3042C112.694 43.6706 112.606 42.998 112.655 42.3285V27.5799H107.832V42.3285C107.881 42.998 107.793 43.6706 107.571 44.3042C107.35 44.9378 107.001 45.5187 106.546 46.0107C106.09 46.5027 105.539 46.8952 104.925 47.1636C104.312 47.4319 103.65 47.5704 102.981 47.5704C102.312 47.5704 101.65 47.4319 101.037 47.1636C100.424 46.8952 99.8721 46.5027 99.4168 46.0107C98.9616 45.5187 98.6124 44.9378 98.3911 44.3042C98.1698 43.6706 98.0812 42.998 98.1307 42.3285V27.5799H89.9531V31.6693H93.2536V42.1676C93.2536 47.7184 96.8079 51.3788 102.246 51.3788C103.862 51.474 105.472 51.1092 106.891 50.3264C108.309 49.5436 109.478 48.3746 110.264 46.9542C111.045 48.3779 112.214 49.5496 113.633 50.3329C115.052 51.1162 116.664 51.4789 118.281 51.3788C123.733 51.3788 127.273 47.7184 127.273 42.1676V27.6067H122.396L122.356 42.3285ZM161.627 18.4358C161.238 18.409 160.848 18.4627 160.48 18.5938C160.112 18.7248 159.775 18.9303 159.49 19.1975C159.205 19.4647 158.978 19.7879 158.822 20.147C158.667 20.5061 158.586 20.8934 158.586 21.2849C158.586 21.6764 158.667 22.0638 158.822 22.4228C158.978 22.7819 159.205 23.1051 159.49 23.3723C159.775 23.6395 160.112 23.845 160.48 23.9761C160.848 24.1071 161.238 24.1609 161.627 24.1341C162.017 24.1609 162.407 24.1071 162.775 23.9761C163.143 23.845 163.48 23.6395 163.765 23.3723C164.05 23.1051 164.277 22.7819 164.433 22.4228C164.588 22.0638 164.668 21.6764 164.668 21.2849C164.668 20.8934 164.588 20.5061 164.433 20.147C164.277 19.7879 164.05 19.4647 163.765 19.1975C163.48 18.9303 163.143 18.7248 162.775 18.5938C162.407 18.4627 162.017 18.409 161.627 18.4358V18.4358ZM144.537 27.1777C143.076 27.1215 141.626 27.4571 140.336 28.1499C139.047 28.8427 137.965 29.8678 137.202 31.1196V18.1006H132.364V50.9765H137.202V37.3006C137.202 33.5464 139.513 31.0793 143.108 31.0793C146.702 31.0793 148.88 33.5464 148.88 37.3006V50.9765H153.757V36.6302C153.827 35.3877 153.637 34.1443 153.201 32.9794C152.765 31.8144 152.092 30.7534 151.224 29.864C150.357 28.9747 149.314 28.2765 148.163 27.814C147.012 27.3514 145.777 27.1347 144.537 27.1777ZM159.236 50.9765H164.073V27.6067H159.236V50.9765ZM264.796 39.2983V50.9765H259.959V47.7452C258.877 48.9361 257.552 49.8794 256.074 50.5109C254.596 51.1425 253 51.4476 251.394 51.4056C244.873 51.4056 240.09 46.324 240.09 39.3386C240.09 32.3531 245.248 27.2715 252.436 27.2715C259.625 27.2715 264.796 32.3531 264.796 39.3386V39.2983ZM259.959 39.3386C259.881 37.8791 259.378 36.4746 258.513 35.2986C257.649 34.1226 256.459 33.2265 255.093 32.721C253.726 32.2155 252.242 32.1227 250.823 32.4542C249.405 32.7856 248.114 33.5267 247.11 34.586C246.107 35.6452 245.434 36.9762 245.176 38.4146C244.918 39.853 245.085 41.3358 245.657 42.6799C246.229 44.0239 247.181 45.1704 248.396 45.9776C249.61 46.7849 251.033 47.2176 252.49 47.2224C253.506 47.2315 254.514 47.0308 255.45 46.6328C256.386 46.2347 257.231 45.6478 257.931 44.9084C258.632 44.1691 259.173 43.2932 259.522 42.335C259.871 41.3768 260.02 40.3569 259.959 39.3386V39.3386ZM211.428 22.4849L213.499 25.1665C216.614 22.7267 220.451 21.4014 224.403 21.4014C228.354 21.4014 232.192 22.7267 235.306 25.1665L237.377 22.4849C233.659 19.6103 229.097 18.0514 224.403 18.0514C219.709 18.0514 215.146 19.6103 211.428 22.4849V22.4849ZM236.816 39.5129C236.885 41.087 236.629 42.6584 236.065 44.129C235.502 45.5996 234.642 46.9378 233.54 48.0601C232.438 49.1824 231.117 50.0646 229.66 50.6518C228.202 51.2389 226.64 51.5183 225.071 51.4726C223.53 51.5062 222.001 51.1966 220.594 50.566C219.187 49.9353 217.937 48.9994 216.933 47.8257V60.5363H212.109V39.352C212.109 32.3263 217.267 27.2849 224.456 27.2849C226.087 27.21 227.715 27.4745 229.238 28.0619C230.762 28.6493 232.148 29.5468 233.309 30.6979C234.47 31.849 235.381 33.2289 235.985 34.7506C236.588 36.2723 236.871 37.9028 236.816 39.5397V39.5129ZM231.845 39.3922C231.769 37.9271 231.267 36.5165 230.4 35.3354C229.532 34.1543 228.339 33.2545 226.967 32.7476C225.595 32.2408 224.104 32.1491 222.681 32.484C221.257 32.8189 219.963 33.5656 218.959 34.6316C217.954 35.6976 217.283 37.0359 217.03 38.4808C216.776 39.9256 216.951 41.4134 217.532 42.7596C218.113 44.1059 219.075 45.2514 220.299 46.0542C221.522 46.8571 222.954 47.2819 224.416 47.276C225.43 47.2835 226.435 47.0814 227.369 46.6823C228.302 46.2831 229.143 45.6954 229.84 44.9559C230.537 44.2163 231.075 43.3406 231.42 42.3834C231.765 41.4262 231.91 40.408 231.845 39.3922ZM286.149 27.6737V40.3576C286.149 44.1117 283.824 46.5788 280.23 46.5788C276.635 46.5788 274.457 44.0447 274.457 40.2905V27.6067H266.32V31.6961H269.633V40.9475C269.559 42.1833 269.741 43.4212 270.169 44.5823C270.598 45.7434 271.262 46.8023 272.121 47.6915C272.979 48.5807 274.013 49.2808 275.156 49.7471C276.299 50.2134 277.526 50.4358 278.76 50.4C280.223 50.4616 281.677 50.1346 282.975 49.4519C284.272 48.7691 285.367 47.755 286.149 46.5117V50.8827C286.149 54.6369 283.877 57.01 280.363 57.01C279.071 57.0585 277.806 56.6356 276.801 55.8196C275.796 55.0036 275.12 53.8499 274.898 52.5721H270.355C270.729 54.9812 271.979 57.1659 273.865 58.7037C275.75 60.2416 278.137 61.0235 280.564 60.8983C286.804 60.8983 291.026 56.7687 291.026 50.6011V27.6067L286.149 27.6737ZM208.355 39.4056C208.351 39.9007 208.302 40.3944 208.208 40.8804H188.298C188.542 42.7353 189.459 44.4346 190.875 45.6521C192.29 46.8696 194.104 47.5195 195.968 47.4771C197.291 47.4845 198.591 47.1333 199.732 46.4608C200.873 45.7882 201.811 44.8191 202.449 43.6559H207.553C206.637 45.9904 205.034 47.9894 202.957 49.386C200.88 50.7826 198.428 51.5105 195.928 51.4726C188.726 51.4726 183.475 46.391 183.475 39.4056C183.475 32.4201 188.726 27.3385 195.928 27.3385C197.552 27.2646 199.174 27.5265 200.693 28.1078C202.213 28.6891 203.596 29.5775 204.759 30.7178C205.922 31.8581 206.839 33.226 207.453 34.7367C208.067 36.2473 208.364 37.8684 208.328 39.4994L208.355 39.4056ZM203.638 37.2201C203.232 35.502 202.247 33.9775 200.849 32.9048C199.451 31.8321 197.727 31.2772 195.968 31.3341C194.231 31.2964 192.533 31.8615 191.163 32.9338C189.792 34.0061 188.832 35.52 188.445 37.2201H203.638Z" fill="white"/>
<path d="M44.1496 36.134C44.1496 41.2558 40.6488 44.9698 35.8518 44.9698C31.0548 44.9698 27.4871 41.2558 27.4871 36.134C27.4871 31.0123 30.9211 27.3117 35.8518 27.3117C40.7824 27.3117 44.1496 31.0257 44.1496 36.134ZM71.7558 15.8614V56.0849C71.7558 58.1678 71.3469 60.2304 70.5525 62.1548C69.7581 64.0792 68.5937 65.8278 67.1259 67.3006C65.658 68.7735 63.9154 69.9419 61.9976 70.739C60.0798 71.5361 58.0242 71.9464 55.9484 71.9464H15.8621C11.6697 71.9464 7.64902 70.2752 4.68456 67.3006C1.7201 64.326 0.0546875 60.2916 0.0546875 56.0849V15.8614C0.0546875 11.6547 1.7201 7.62032 4.68456 4.64572C7.64902 1.67112 11.6697 0 15.8621 0H55.9484C58.0242 0 60.0798 0.410279 61.9976 1.20739C63.9154 2.0045 65.658 3.17285 67.1259 4.64572C68.5937 6.11859 69.7581 7.86714 70.5525 9.79154C71.3469 11.7159 71.7558 13.7785 71.7558 15.8614ZM50.4566 36.3084C50.5131 34.3829 50.1742 32.4664 49.4609 30.6781C48.7475 28.8898 47.675 27.2679 46.3101 25.9134C44.9451 24.5589 43.317 23.5007 41.527 22.8048C39.7369 22.1089 37.8233 21.79 35.9052 21.8681C27.4604 21.8681 21.3405 27.8614 21.3405 36.134V60.8983H27.4871V46.6592C28.6748 47.8737 30.0964 48.8328 31.6654 49.4782C33.2344 50.1237 34.9179 50.4419 36.6134 50.4134C38.463 50.4628 40.3029 50.1301 42.0189 49.4359C43.7348 48.7418 45.2903 47.701 46.5885 46.3782C47.8867 45.0554 48.9 43.4789 49.5654 41.7466C50.2308 40.0144 50.5342 38.1632 50.4566 36.3084V36.3084ZM51.3919 16.6123L51.0979 16.3844C46.7262 13.0354 41.3786 11.2212 35.8785 11.2212C30.3784 11.2212 25.0308 13.0354 20.6591 16.3844L20.3785 16.6123L23.1711 20.1654V20.2324L23.4651 20.0044C26.9926 17.2318 31.3442 15.7252 35.8251 15.7252C40.3059 15.7252 44.6576 17.2318 48.185 20.0044L48.479 20.2458L51.3919 16.6123Z" fill="white"/>
</g>
<defs>
<clipPath id="clip0_56_64725">
<rect width="291" height="72" fill="white"/>
</clipPath>
</defs>
</svg>
