<svg xmlns="http://www.w3.org/2000/svg" width="20" height="20" viewBox="0 0 20 20" fill="none">
    <path d="M6.66666 2.5C6.66666 2.27899 6.75446 2.06703 6.91074 1.91075C7.06702 1.75447 7.27898 1.66667 7.49999 1.66667H12.5C12.721 1.66667 12.933 1.75447 13.0893 1.91075C13.2455 2.06703 13.3333 2.27899 13.3333 2.5H15C15.442 2.5 15.8659 2.6756 16.1785 2.98816C16.4911 3.30072 16.6667 3.72464 16.6667 4.16667V16.6667C16.6667 17.1087 16.4911 17.5326 16.1785 17.8452C15.8659 18.1577 15.442 18.3333 15 18.3333H4.99999C4.55797 18.3333 4.13404 18.1577 3.82148 17.8452C3.50892 17.5326 3.33333 17.1087 3.33333 16.6667V4.16667C3.33333 3.72464 3.50892 3.30072 3.82148 2.98816C4.13404 2.6756 4.55797 2.5 4.99999 2.5H6.66666ZM6.66666 4.16667H4.99999V16.6667H15V4.16667H13.3333V5C13.3333 5.22101 13.2455 5.43298 13.0893 5.58926C12.933 5.74554 12.721 5.83333 12.5 5.83333H7.49999C7.27898 5.83333 7.06702 5.74554 6.91074 5.58926C6.75446 5.43298 6.66666 5.22101 6.66666 5V4.16667ZM11.6667 3.33333H8.33333V4.16667H11.6667V3.33333ZM13.0892 8.99417C13.2454 9.15044 13.3331 9.36236 13.3331 9.58333C13.3331 9.8043 13.2454 10.0162 13.0892 10.1725L9.75583 13.5058C9.59955 13.6621 9.38763 13.7498 9.16666 13.7498C8.94569 13.7498 8.73377 13.6621 8.57749 13.5058L6.91083 11.8392C6.83124 11.7623 6.76775 11.6703 6.72408 11.5687C6.6804 11.467 6.65741 11.3577 6.65645 11.247C6.65549 11.1364 6.67658 11.0266 6.71848 10.9242C6.76038 10.8218 6.82226 10.7287 6.9005 10.6505C6.97874 10.5723 7.07179 10.5104 7.1742 10.4685C7.27661 10.4266 7.38635 10.4055 7.497 10.4065C7.60764 10.4074 7.717 10.4304 7.81867 10.4741C7.92034 10.5178 8.01229 10.5812 8.08916 10.6608L9.16666 11.7383L11.9108 8.99417C12.0671 8.83794 12.279 8.75018 12.5 8.75018C12.721 8.75018 12.9329 8.83794 13.0892 8.99417V8.99417Z" fill="#CCCCCC"/>
</svg>
