<svg xmlns="http://www.w3.org/2000/svg" width="20" height="20" viewBox="0 0 20 20" fill="none">
    <path d="M12.5 0.9375C10.7602 0.939568 9.09216 1.63164 7.8619 2.8619C6.63164 4.09215 5.93957 5.76015 5.9375 7.5C5.93531 8.12684 6.0248 8.75062 6.20313 9.35156L1.83594 13.7109C1.66239 13.8886 1.5644 14.1266 1.5625 14.375V17.5C1.5625 17.7486 1.66127 17.9871 1.83709 18.1629C2.0129 18.3387 2.25136 18.4375 2.5 18.4375H5.625C5.87364 18.4375 6.1121 18.3387 6.28791 18.1629C6.46373 17.9871 6.5625 17.7486 6.5625 17.5V16.5625H7.5C7.74864 16.5625 7.9871 16.4637 8.16291 16.2879C8.33873 16.1121 8.4375 15.8736 8.4375 15.625V14.6875H9.375C9.62337 14.6856 9.86137 14.5876 10.0391 14.4141L10.6484 13.7969C11.2494 13.9752 11.8732 14.0647 12.5 14.0625C14.2405 14.0625 15.9097 13.3711 17.1404 12.1404C18.3711 10.9097 19.0625 9.24048 19.0625 7.5C19.0625 5.75952 18.3711 4.09032 17.1404 2.85961C15.9097 1.6289 14.2405 0.9375 12.5 0.9375V0.9375ZM12.5 12.1875C11.9089 12.1889 11.3229 12.0775 10.7734 11.8594C10.6017 11.7853 10.4117 11.7644 10.2279 11.7992C10.0441 11.834 9.87499 11.923 9.74219 12.0547L8.98438 12.8125H7.5C7.25136 12.8125 7.0129 12.9113 6.83709 13.0871C6.66127 13.2629 6.5625 13.5014 6.5625 13.75V14.6875H5.625C5.37636 14.6875 5.1379 14.7863 4.96209 14.9621C4.78627 15.1379 4.6875 15.3764 4.6875 15.625V16.5625H3.4375V14.7656L7.94531 10.2578C8.07702 10.125 8.166 9.95585 8.20081 9.77208C8.23562 9.58831 8.21466 9.39833 8.14062 9.22656C7.77138 8.29457 7.71065 7.26876 7.96735 6.29971C8.22404 5.33066 8.78464 4.46943 9.56684 3.84245C10.349 3.21547 11.3117 2.85577 12.3133 2.81616C13.315 2.77655 14.303 3.05911 15.1323 3.62236C15.9616 4.18561 16.5884 4.99988 16.9209 5.94564C17.2533 6.89139 17.2737 7.9188 16.9792 8.87703C16.6847 9.83527 16.0908 10.6739 15.2846 11.2697C14.4784 11.8655 13.5025 12.1872 12.5 12.1875V12.1875ZM15.3125 5.9375C15.3125 6.18473 15.2392 6.4264 15.1018 6.63196C14.9645 6.83752 14.7693 6.99774 14.5409 7.09235C14.3124 7.18696 14.0611 7.21171 13.8186 7.16348C13.5762 7.11525 13.3534 6.9962 13.1786 6.82138C13.0038 6.64657 12.8847 6.42384 12.8365 6.18136C12.7883 5.93889 12.813 5.68755 12.9077 5.45915C13.0023 5.23074 13.1625 5.03551 13.368 4.89816C13.5736 4.76081 13.8153 4.6875 14.0625 4.6875C14.394 4.6875 14.712 4.8192 14.9464 5.05362C15.1808 5.28804 15.3125 5.60598 15.3125 5.9375Z" fill="#CCCCCC"/>
</svg>
