<svg xmlns="http://www.w3.org/2000/svg" width="20" height="20" viewBox="0 0 20 20" fill="none">
    <path d="M15.8333 12.65V5.83333C15.8333 3.99167 14.3417 2.5 12.5 2.5C10.6583 2.5 9.16667 3.99167 9.16667 5.83333V14.1667C9.16667 15.0833 8.41667 15.8333 7.5 15.8333C6.58333 15.8333 5.83333 15.0833 5.83333 14.1667V7.35C6.8 7 7.5 6.08333 7.5 5C7.5 3.61667 6.38333 2.5 5 2.5C3.61667 2.5 2.5 3.61667 2.5 5C2.5 6.08333 3.2 7 4.16667 7.35V14.1667C4.16667 16.0083 5.65833 17.5 7.5 17.5C9.34167 17.5 10.8333 16.0083 10.8333 14.1667V5.83333C10.8333 4.91667 11.5833 4.16667 12.5 4.16667C13.4167 4.16667 14.1667 4.91667 14.1667 5.83333V12.65C13.6117 12.8466 13.1441 13.2331 12.8464 13.741C12.5487 14.249 12.4401 14.8458 12.5398 15.4261C12.6395 16.0064 12.9411 16.5328 13.3913 16.9122C13.8414 17.2917 14.4112 17.4999 15 17.5C16.3833 17.5 17.5 16.3833 17.5 15C17.5 13.9167 16.8 13 15.8333 12.65Z" fill="#CCCCCC"/>
</svg>
