<svg xmlns="http://www.w3.org/2000/svg" width="20" height="20" viewBox="0 0 20 20" fill="none">
    <path d="M5.375 1C3.51088 1 2 2.76287 2 4.93749C2 6.79935 3.10813 8.35972 4.5965 8.76922L4.03738 17.8772C4.02694 18.0217 4.0466 18.1668 4.09511 18.3033C4.14362 18.4398 4.21994 18.5648 4.31922 18.6703C4.4185 18.7759 4.5386 18.8596 4.67192 18.9164C4.80523 18.9731 4.94887 19.0016 5.09375 18.9999H5.65625C6.275 18.9999 6.74975 18.4948 6.71263 17.8772L6.1535 8.76922C7.64187 8.3586 8.75 6.79935 8.75 4.93749C8.75 2.76287 7.23912 1 5.375 1ZM16.7184 1L15.7812 6.62498H15.0781L14.609 1H14.1399L13.6707 6.62498H12.9676L12.0305 1H11.5614V8.31247C11.5614 8.46166 11.6206 8.60473 11.7261 8.71022C11.8316 8.81571 11.9747 8.87497 12.1239 8.87497H13.5886L13.0363 17.8772C13.0258 18.0217 13.0455 18.1668 13.094 18.3033C13.1425 18.4398 13.2188 18.5648 13.3181 18.6703C13.4174 18.7759 13.5375 18.8596 13.6708 18.9164C13.8041 18.9731 13.9477 19.0016 14.0926 18.9999H14.6551C15.2739 18.9999 15.7486 18.4948 15.7115 17.8772L15.1591 8.87497H16.6239C16.7731 8.87497 16.9161 8.81571 17.0216 8.71022C17.1271 8.60473 17.1864 8.46166 17.1864 8.31247V1H16.7172H16.7184Z" fill="#CCCCCC"/>
</svg>