<svg xmlns="http://www.w3.org/2000/svg" width="20" height="20" viewBox="0 0 20 20" fill="none">
    <path d="M18.5363 7.11684L16.9043 5.4848C16.7726 5.3549 16.597 5.27905 16.4122 5.27221C16.2274 5.26536 16.0467 5.32802 15.9057 5.44782C15.6882 5.633 15.409 5.7297 15.1235 5.71874C14.838 5.70778 14.567 5.58997 14.3643 5.38865C14.1631 5.18594 14.0454 4.91505 14.0344 4.62965C14.0234 4.34424 14.1201 4.06512 14.3051 3.84758C14.4249 3.70666 14.4876 3.52597 14.4808 3.34113C14.4739 3.15629 14.3981 2.98073 14.2682 2.84905L12.6346 1.21517C12.4966 1.07738 12.3095 1 12.1145 1C11.9194 1 11.7324 1.07738 11.5943 1.21517L8.9926 3.81652C8.83197 3.97772 8.71083 4.17392 8.63867 4.38975C8.62462 4.43124 8.6012 4.46894 8.57022 4.49992C8.53924 4.5309 8.50154 4.55432 8.46005 4.56837C8.24413 4.64053 8.04791 4.76181 7.88682 4.92267L1.21517 11.5943C1.07738 11.7324 1 11.9194 1 12.1145C1 12.3095 1.07738 12.4966 1.21517 12.6346L2.84905 14.2667C2.98073 14.3966 3.15629 14.4724 3.34113 14.4793C3.52597 14.4861 3.70666 14.4235 3.84758 14.3037C4.06463 14.117 4.3442 14.0192 4.63029 14.03C4.91637 14.0407 5.18783 14.1592 5.39026 14.3616C5.5927 14.564 5.71115 14.8355 5.7219 15.1216C5.73264 15.4076 5.63487 15.6872 5.44819 15.9043C5.32839 16.0452 5.26573 16.2259 5.27258 16.4107C5.27942 16.5956 5.35527 16.7711 5.48517 16.9028L7.11721 18.5348C7.25526 18.6726 7.44233 18.75 7.63737 18.75C7.83241 18.75 8.01948 18.6726 8.15753 18.5348L14.8292 11.8632C14.99 11.7022 15.1112 11.5061 15.1835 11.2903C15.1975 11.2487 15.2209 11.2109 15.252 11.1798C15.283 11.1488 15.3208 11.1253 15.3625 11.1113C15.5782 11.0392 15.7743 10.918 15.9353 10.7574L18.5367 8.15568C18.674 8.01765 18.751 7.83086 18.7509 7.63618C18.7509 7.44151 18.6737 7.25478 18.5363 7.11684ZM10.0906 6.02031C10.0357 6.07527 9.97042 6.11887 9.89862 6.14861C9.82682 6.17836 9.74987 6.19367 9.67215 6.19367C9.59443 6.19367 9.51748 6.17836 9.44568 6.14861C9.37388 6.11887 9.30864 6.07527 9.25369 6.02031L8.82802 5.59464C8.71976 5.48311 8.65972 5.33346 8.66089 5.17803C8.66206 5.0226 8.72434 4.87387 8.83428 4.76398C8.94421 4.65409 9.09297 4.59188 9.2484 4.59078C9.40384 4.58968 9.55346 4.64978 9.66494 4.75809L10.0906 5.18339C10.1456 5.23834 10.1892 5.30358 10.2189 5.37538C10.2487 5.44718 10.264 5.52413 10.264 5.60185C10.264 5.67957 10.2487 5.75652 10.2189 5.82832C10.1892 5.90012 10.1456 5.96536 10.0906 6.02031ZM11.7178 7.64754C11.6069 7.75843 11.4564 7.82071 11.2996 7.82071C11.1427 7.82071 10.9923 7.75843 10.8813 7.64754L10.4745 7.24073C10.4195 7.18578 10.3759 7.12054 10.3462 7.04874C10.3165 6.97694 10.3012 6.89999 10.3012 6.82228C10.3012 6.74456 10.3165 6.66761 10.3462 6.59581C10.3759 6.52401 10.4195 6.45877 10.4745 6.40382C10.5855 6.29284 10.736 6.23049 10.8929 6.23049C10.9707 6.23049 11.0476 6.24579 11.1194 6.27553C11.1912 6.30527 11.2565 6.34886 11.3114 6.40382L11.7182 6.81063C11.7734 6.86557 11.8171 6.93086 11.847 7.00275C11.8769 7.07463 11.8923 7.15171 11.8923 7.22956C11.8923 7.30741 11.877 7.3845 11.8472 7.45642C11.8174 7.52833 11.7737 7.59366 11.7186 7.64865L11.7178 7.64754ZM13.3451 9.27477C13.2901 9.32973 13.2249 9.37333 13.1531 9.40308C13.0813 9.43282 13.0043 9.44813 12.9266 9.44813C12.8489 9.44813 12.7719 9.43282 12.7001 9.40308C12.6283 9.37333 12.5631 9.32973 12.5082 9.27477L12.1014 8.86797C11.9931 8.75644 11.933 8.60679 11.9342 8.45135C11.9354 8.29592 11.9977 8.14719 12.1076 8.03731C12.2175 7.92742 12.3663 7.8652 12.5217 7.8641C12.6772 7.863 12.8268 7.9231 12.9383 8.03142L13.3451 8.43823C13.4004 8.49308 13.4443 8.55831 13.4743 8.63018C13.5044 8.70205 13.5199 8.77915 13.5201 8.85704C13.5203 8.93493 13.5051 9.0121 13.4753 9.0841C13.4456 9.1561 13.402 9.22153 13.3469 9.27662L13.3451 9.27477ZM14.9882 10.922C14.9333 10.9769 14.868 11.0205 14.7962 11.0503C14.7244 11.08 14.6475 11.0953 14.5698 11.0953C14.492 11.0953 14.4151 11.08 14.3433 11.0503C14.2715 11.0205 14.2062 10.9769 14.1513 10.922L13.7282 10.4967C13.6721 10.4419 13.6274 10.3765 13.5968 10.3043C13.5662 10.2321 13.5502 10.1545 13.5499 10.0761C13.5495 9.99769 13.5647 9.91997 13.5946 9.84748C13.6246 9.77499 13.6686 9.70918 13.7242 9.65386C13.7798 9.59854 13.8458 9.55482 13.9184 9.52525C13.9911 9.49567 14.0689 9.48083 14.1473 9.48159C14.2257 9.48235 14.3032 9.49868 14.3752 9.52965C14.4473 9.56062 14.5125 9.6056 14.567 9.66198L14.9904 10.0869C15.0454 10.1419 15.0889 10.2071 15.1186 10.279C15.1484 10.3508 15.1636 10.4277 15.1636 10.5054C15.1636 10.5832 15.1482 10.6601 15.1184 10.7319C15.0887 10.8037 15.045 10.8689 14.9901 10.9238L14.9882 10.922Z" fill="#CCCCCC"/>
</svg>
